<?xml version="1.0" encoding="UTF-8" standalone="no"?>
<svg
   xmlns:dc="http://purl.org/dc/elements/1.1/"
   xmlns:cc="http://creativecommons.org/ns#"
   xmlns:rdf="http://www.w3.org/1999/02/22-rdf-syntax-ns#"
   xmlns:svg="http://www.w3.org/2000/svg"
   xmlns="http://www.w3.org/2000/svg"
   viewBox="0 0 123 125.67"
   version="1.1"
   id="svg947"
   width="123"
   height="125.67">
  <metadata
     id="metadata951">
    <rdf:RDF>
      <cc:Work
         rdf:about="">
        <dc:format>image/svg+xml</dc:format>
        <dc:type
           rdf:resource="http://purl.org/dc/dcmitype/StillImage" />
        <dc:title>labs-full-logo</dc:title>
      </cc:Work>
    </rdf:RDF>
  </metadata>
  <defs
     id="defs913">
    <style
       id="style911">.cls-1{fill:#12274b;}.cls-2{fill:#209cee;}</style>
  </defs>
  <title
     id="title915">labs-full-logo</title>
  <path
     class="cls-1"
     d="m 30.42,112.35 q 3.13,2 10,2 L 39,124.73 q -12.91,0 -18.5,-4.46 -5.59,-4.46 -5.59,-13.91 V 81.73 q 0,-7.45 -3.39,-10.65 Q 8.13,67.88 0,67.89 V 57 Q 8.12,57 11.51,53.81 14.9,50.62 14.9,43.16 V 18.37 Q 14.9,8.92 20.49,4.46 26.08,0 39,0 l 1.46,10.38 q -6.92,0 -10,2 a 6.89,6.89 0 0 0 -3.13,6.26 v 26.49 q 0,13.58 -14.78,17.31 14.74,3.45 14.74,17.16 v 26.49 a 6.89,6.89 0 0 0 3.13,6.26 z"
     id="path933" />
  <path
     class="cls-1"
     d="M 110.91,53.78 Q 114.3,57 122.42,57 v 10.89 q -8.12,0 -11.51,3.19 -3.39,3.19 -3.39,10.65 v 24.63 q 0,9.45 -5.59,13.91 -5.59,4.46 -18.5,4.46 L 82,114.35 q 6.92,0 10,-1.93 3.08,-1.93 3,-6.33 V 79.6 Q 95,65.89 109.78,62.43 95,58.71 95,45.13 V 18.64 a 6.93,6.93 0 0 0 -3.06,-6.26 q -3.06,-2 -10,-2 L 83.42,0 q 12.91,0 18.5,4.46 5.59,4.46 5.59,13.91 v 24.76 q 0.01,7.46 3.4,10.65 z"
     id="path935" />
  <circle
     class="cls-2"
     cx="71.669998"
     cy="33.689999"
     r="5.79"
     id="circle937" />
  <circle
     class="cls-2"
     cx="61.080002"
     cy="10.29"
     r="5.79"
     id="circle939" />
  <circle
     class="cls-2"
     cx="50.529999"
     cy="48.700001"
     r="5.79"
     id="circle941" />
  <path
     class="cls-2"
     d="M 77.26,63 H 45 a 7.47,7.47 0 0 0 -7.47,7.47 v 28.9 a 7.47,7.47 0 0 0 7.47,7.47 h 32.26 a 7.47,7.47 0 0 0 7.47,-7.47 V 70.51 A 7.47,7.47 0 0 0 77.26,63 Z M 71,82.34 A 5.79,5.79 0 1 1 76.93,76.7 5.79,5.79 0 0 1 71,82.34 Z"
     id="path943" />
</svg>
